<svg width="783" height="783" viewBox="0 0 783 783" fill="none" xmlns="http://www.w3.org/2000/svg">
<path d="M391.5 0C314.069 0 238.376 22.9611 173.994 65.9796C109.613 108.998 59.433 170.142 29.8013 241.679C0.169633 313.217 -7.58337 391.934 7.52274 467.878C22.6288 543.821 59.9156 613.58 114.668 668.332C169.42 723.084 239.179 760.371 315.122 775.477C391.066 790.583 469.783 782.83 541.321 753.199C612.858 723.567 674.002 673.387 717.02 609.006C760.039 544.624 783 468.931 783 391.5C782.878 287.705 741.591 188.197 668.197 114.803C594.803 41.409 495.295 0.122449 391.5 0ZM391.5 71.1818C444.146 71.2129 495.972 84.2194 542.394 109.05C588.815 133.882 628.401 169.772 657.649 213.545H125.351C154.599 169.772 194.185 133.882 240.606 109.05C287.028 84.2194 338.855 71.2129 391.5 71.1818ZM90.0096 498.593C115.367 499.396 140.261 505.599 163.031 516.787C185.801 527.976 205.922 543.893 222.052 563.475C250.095 597.142 264.215 640.252 261.522 683.986C221.898 666.265 186.273 640.702 156.796 608.839C127.319 576.976 104.6 539.474 90.0096 498.593ZM521.478 683.986C518.767 640.25 532.889 597.133 560.948 563.475C577.076 543.891 597.197 527.973 619.967 516.784C642.738 505.596 667.633 499.394 692.991 498.593C678.4 539.474 655.681 576.976 626.204 608.839C596.727 640.702 561.102 666.265 521.478 683.986ZM711.818 391.5C711.784 403.393 711.083 415.276 709.718 427.091C671.026 425.411 632.475 432.767 597.12 448.576C561.765 464.385 530.578 488.212 506.032 518.168C484.565 544.017 468.716 574.054 459.494 606.365C450.272 638.675 447.879 672.553 452.467 705.839C412.213 713.811 370.787 713.811 330.533 705.839C335.122 672.553 332.729 638.675 323.507 606.365C314.285 574.054 298.436 544.017 276.969 518.168C252.292 488.363 221.082 464.644 185.758 448.849C150.435 433.054 111.948 425.609 73.2818 427.091C67.6678 378.992 73.3466 330.247 89.8672 284.727H693.133C705.425 318.987 711.745 355.102 711.818 391.5ZM338.114 409.295C338.114 398.737 341.245 388.415 347.111 379.636C352.977 370.856 361.315 364.013 371.07 359.973C380.825 355.932 391.559 354.875 401.915 356.935C412.271 358.995 421.784 364.079 429.25 371.546C436.716 379.012 441.801 388.524 443.861 398.88C445.921 409.236 444.863 419.97 440.823 429.725C436.782 439.481 429.939 447.818 421.16 453.684C412.381 459.551 402.059 462.682 391.5 462.682C377.341 462.682 363.762 457.057 353.75 447.045C343.738 437.033 338.114 423.454 338.114 409.295Z" fill="#CE8339"/>
</svg>
